<mxfile host="app.diagrams.net" agent="Mozilla/5.0 (Windows NT 10.0; Win64; x64) AppleWebKit/537.36 (KHTML, like Gecko) Chrome/129.0.0.0 Safari/537.36 Edg/129.0.0.0" version="24.7.17">
  <diagram id="C5RBs43oDa-KdzZeNtuy" name="Page-1">
    <mxGraphModel dx="1678" dy="919" grid="1" gridSize="10" guides="1" tooltips="1" connect="1" arrows="1" fold="1" page="1" pageScale="1" pageWidth="827" pageHeight="1169" math="0" shadow="0">
      <root>
        <mxCell id="WIyWlLk6GJQsqaUBKTNV-0" />
        <mxCell id="WIyWlLk6GJQsqaUBKTNV-1" parent="WIyWlLk6GJQsqaUBKTNV-0" />
        <mxCell id="JJbOji-D_doSzsDHy1rM-0" value="" style="whiteSpace=wrap;html=1;aspect=fixed;verticalAlign=bottom;fillColor=#ffe6cc;strokeColor=#d79b00;" vertex="1" parent="WIyWlLk6GJQsqaUBKTNV-1">
          <mxGeometry x="63" y="40" width="700" height="700" as="geometry" />
        </mxCell>
        <mxCell id="b4RO9b29_PlneMSo0PhZ-76" value="" style="whiteSpace=wrap;html=1;aspect=fixed;verticalAlign=bottom;fillColor=#d5e8d4;strokeColor=#82b366;" parent="WIyWlLk6GJQsqaUBKTNV-1" vertex="1">
          <mxGeometry x="1720" y="40" width="700" height="700" as="geometry" />
        </mxCell>
        <mxCell id="b4RO9b29_PlneMSo0PhZ-59" value="" style="whiteSpace=wrap;html=1;aspect=fixed;verticalAlign=bottom;fillColor=#dae8fc;strokeColor=#6c8ebf;" parent="WIyWlLk6GJQsqaUBKTNV-1" vertex="1">
          <mxGeometry x="891" y="40" width="700" height="700" as="geometry" />
        </mxCell>
        <mxCell id="b4RO9b29_PlneMSo0PhZ-0" value="Sākums" style="ellipse;whiteSpace=wrap;html=1;" parent="WIyWlLk6GJQsqaUBKTNV-1" vertex="1">
          <mxGeometry x="316" y="60" width="120" height="80" as="geometry" />
        </mxCell>
        <mxCell id="b4RO9b29_PlneMSo0PhZ-23" style="edgeStyle=orthogonalEdgeStyle;rounded=0;orthogonalLoop=1;jettySize=auto;html=1;exitX=0.5;exitY=1;exitDx=0;exitDy=0;exitPerimeter=0;entryX=0.5;entryY=0;entryDx=0;entryDy=0;" parent="WIyWlLk6GJQsqaUBKTNV-1" source="b4RO9b29_PlneMSo0PhZ-2" target="b4RO9b29_PlneMSo0PhZ-20" edge="1">
          <mxGeometry relative="1" as="geometry" />
        </mxCell>
        <mxCell id="b4RO9b29_PlneMSo0PhZ-2" value="" style="verticalLabelPosition=bottom;verticalAlign=top;html=1;shape=card;whiteSpace=wrap;size=20;arcSize=12;" parent="WIyWlLk6GJQsqaUBKTNV-1" vertex="1">
          <mxGeometry x="326" y="160" width="100" height="60" as="geometry" />
        </mxCell>
        <mxCell id="b4RO9b29_PlneMSo0PhZ-4" value="Ievada skaitli" style="text;strokeColor=none;fillColor=none;html=1;fontSize=12;fontStyle=0;verticalAlign=middle;align=center;" parent="WIyWlLk6GJQsqaUBKTNV-1" vertex="1">
          <mxGeometry x="326" y="175.5" width="100" height="29" as="geometry" />
        </mxCell>
        <mxCell id="b4RO9b29_PlneMSo0PhZ-6" value="Izvada factorial izteiksmi" style="strokeWidth=2;html=1;shape=mxgraph.flowchart.document2;whiteSpace=wrap;size=0.25;" parent="WIyWlLk6GJQsqaUBKTNV-1" vertex="1">
          <mxGeometry x="516" y="410" width="140" height="60" as="geometry" />
        </mxCell>
        <mxCell id="b4RO9b29_PlneMSo0PhZ-25" value="Nē" style="edgeStyle=orthogonalEdgeStyle;rounded=0;orthogonalLoop=1;jettySize=auto;html=1;entryX=0.5;entryY=0;entryDx=0;entryDy=0;" parent="WIyWlLk6GJQsqaUBKTNV-1" source="b4RO9b29_PlneMSo0PhZ-8" target="b4RO9b29_PlneMSo0PhZ-14" edge="1">
          <mxGeometry relative="1" as="geometry" />
        </mxCell>
        <mxCell id="b4RO9b29_PlneMSo0PhZ-8" value="i &amp;lt;= skaitli" style="strokeWidth=2;html=1;shape=mxgraph.flowchart.decision;whiteSpace=wrap;" parent="WIyWlLk6GJQsqaUBKTNV-1" vertex="1">
          <mxGeometry x="326" y="320" width="100" height="100" as="geometry" />
        </mxCell>
        <mxCell id="b4RO9b29_PlneMSo0PhZ-14" value="Beigas" style="ellipse;whiteSpace=wrap;html=1;" parent="WIyWlLk6GJQsqaUBKTNV-1" vertex="1">
          <mxGeometry x="166" y="530" width="120" height="80" as="geometry" />
        </mxCell>
        <mxCell id="b4RO9b29_PlneMSo0PhZ-15" style="edgeStyle=orthogonalEdgeStyle;rounded=0;orthogonalLoop=1;jettySize=auto;html=1;entryX=0.5;entryY=0;entryDx=0;entryDy=0;entryPerimeter=0;" parent="WIyWlLk6GJQsqaUBKTNV-1" source="b4RO9b29_PlneMSo0PhZ-0" target="b4RO9b29_PlneMSo0PhZ-2" edge="1">
          <mxGeometry relative="1" as="geometry" />
        </mxCell>
        <mxCell id="b4RO9b29_PlneMSo0PhZ-20" value="inicializē result uz 1 un i uz 1" style="rounded=0;whiteSpace=wrap;html=1;" parent="WIyWlLk6GJQsqaUBKTNV-1" vertex="1">
          <mxGeometry x="316" y="240" width="120" height="60" as="geometry" />
        </mxCell>
        <mxCell id="b4RO9b29_PlneMSo0PhZ-27" style="edgeStyle=orthogonalEdgeStyle;rounded=0;orthogonalLoop=1;jettySize=auto;html=1;" parent="WIyWlLk6GJQsqaUBKTNV-1" source="b4RO9b29_PlneMSo0PhZ-21" target="b4RO9b29_PlneMSo0PhZ-22" edge="1">
          <mxGeometry relative="1" as="geometry" />
        </mxCell>
        <mxCell id="b4RO9b29_PlneMSo0PhZ-21" value="result *= i" style="rounded=0;whiteSpace=wrap;html=1;" parent="WIyWlLk6GJQsqaUBKTNV-1" vertex="1">
          <mxGeometry x="526" y="490" width="120" height="60" as="geometry" />
        </mxCell>
        <mxCell id="b4RO9b29_PlneMSo0PhZ-22" value="i = i + 1" style="rounded=0;whiteSpace=wrap;html=1;" parent="WIyWlLk6GJQsqaUBKTNV-1" vertex="1">
          <mxGeometry x="526" y="570" width="120" height="60" as="geometry" />
        </mxCell>
        <mxCell id="b4RO9b29_PlneMSo0PhZ-24" style="edgeStyle=orthogonalEdgeStyle;rounded=0;orthogonalLoop=1;jettySize=auto;html=1;entryX=0.5;entryY=0;entryDx=0;entryDy=0;entryPerimeter=0;" parent="WIyWlLk6GJQsqaUBKTNV-1" source="b4RO9b29_PlneMSo0PhZ-20" target="b4RO9b29_PlneMSo0PhZ-8" edge="1">
          <mxGeometry relative="1" as="geometry" />
        </mxCell>
        <mxCell id="b4RO9b29_PlneMSo0PhZ-26" value="Jā" style="edgeStyle=orthogonalEdgeStyle;rounded=0;orthogonalLoop=1;jettySize=auto;html=1;entryX=0.5;entryY=0;entryDx=0;entryDy=0;entryPerimeter=0;" parent="WIyWlLk6GJQsqaUBKTNV-1" source="b4RO9b29_PlneMSo0PhZ-8" target="b4RO9b29_PlneMSo0PhZ-6" edge="1">
          <mxGeometry relative="1" as="geometry" />
        </mxCell>
        <mxCell id="b4RO9b29_PlneMSo0PhZ-29" value="" style="endArrow=classic;html=1;rounded=0;entryX=0.5;entryY=0;entryDx=0;entryDy=0;" parent="WIyWlLk6GJQsqaUBKTNV-1" target="b4RO9b29_PlneMSo0PhZ-21" edge="1">
          <mxGeometry width="50" height="50" relative="1" as="geometry">
            <mxPoint x="586" y="460" as="sourcePoint" />
            <mxPoint x="636" y="410" as="targetPoint" />
          </mxGeometry>
        </mxCell>
        <mxCell id="b4RO9b29_PlneMSo0PhZ-30" style="edgeStyle=orthogonalEdgeStyle;rounded=0;orthogonalLoop=1;jettySize=auto;html=1;entryX=0.5;entryY=0.94;entryDx=0;entryDy=0;entryPerimeter=0;" parent="WIyWlLk6GJQsqaUBKTNV-1" source="b4RO9b29_PlneMSo0PhZ-22" target="b4RO9b29_PlneMSo0PhZ-8" edge="1">
          <mxGeometry relative="1" as="geometry" />
        </mxCell>
        <mxCell id="b4RO9b29_PlneMSo0PhZ-32" value="1 Uzdevuma blokshēma" style="text;strokeColor=none;fillColor=none;html=1;fontSize=20;fontStyle=1;verticalAlign=middle;align=center;" parent="WIyWlLk6GJQsqaUBKTNV-1" vertex="1">
          <mxGeometry x="536" y="60" width="100" height="40" as="geometry" />
        </mxCell>
        <mxCell id="b4RO9b29_PlneMSo0PhZ-53" style="edgeStyle=orthogonalEdgeStyle;rounded=0;orthogonalLoop=1;jettySize=auto;html=1;" parent="WIyWlLk6GJQsqaUBKTNV-1" source="b4RO9b29_PlneMSo0PhZ-33" target="b4RO9b29_PlneMSo0PhZ-34" edge="1">
          <mxGeometry relative="1" as="geometry" />
        </mxCell>
        <mxCell id="b4RO9b29_PlneMSo0PhZ-33" value="Sākums" style="ellipse;whiteSpace=wrap;html=1;" parent="WIyWlLk6GJQsqaUBKTNV-1" vertex="1">
          <mxGeometry x="1180" y="60" width="120" height="80" as="geometry" />
        </mxCell>
        <mxCell id="b4RO9b29_PlneMSo0PhZ-54" style="edgeStyle=orthogonalEdgeStyle;rounded=0;orthogonalLoop=1;jettySize=auto;html=1;entryX=0.5;entryY=0;entryDx=0;entryDy=0;" parent="WIyWlLk6GJQsqaUBKTNV-1" source="b4RO9b29_PlneMSo0PhZ-34" target="b4RO9b29_PlneMSo0PhZ-39" edge="1">
          <mxGeometry relative="1" as="geometry" />
        </mxCell>
        <mxCell id="b4RO9b29_PlneMSo0PhZ-34" value="" style="verticalLabelPosition=bottom;verticalAlign=top;html=1;shape=card;whiteSpace=wrap;size=20;arcSize=12;" parent="WIyWlLk6GJQsqaUBKTNV-1" vertex="1">
          <mxGeometry x="1170" y="160" width="140" height="70" as="geometry" />
        </mxCell>
        <mxCell id="b4RO9b29_PlneMSo0PhZ-37" value="Ievada noguldījumu,&amp;nbsp;&lt;div&gt;noguldījuma ilgumu,&amp;nbsp;&lt;div&gt;procentu likmi&lt;/div&gt;&lt;/div&gt;" style="text;strokeColor=none;fillColor=none;html=1;fontSize=12;fontStyle=0;verticalAlign=middle;align=center;" parent="WIyWlLk6GJQsqaUBKTNV-1" vertex="1">
          <mxGeometry x="1191" y="180.5" width="100" height="29" as="geometry" />
        </mxCell>
        <mxCell id="b4RO9b29_PlneMSo0PhZ-44" value="Nē" style="edgeStyle=orthogonalEdgeStyle;rounded=0;orthogonalLoop=1;jettySize=auto;html=1;" parent="WIyWlLk6GJQsqaUBKTNV-1" source="b4RO9b29_PlneMSo0PhZ-38" target="b4RO9b29_PlneMSo0PhZ-43" edge="1">
          <mxGeometry relative="1" as="geometry" />
        </mxCell>
        <mxCell id="b4RO9b29_PlneMSo0PhZ-45" value="Jā" style="edgeStyle=orthogonalEdgeStyle;rounded=0;orthogonalLoop=1;jettySize=auto;html=1;entryX=0.5;entryY=0;entryDx=0;entryDy=0;" parent="WIyWlLk6GJQsqaUBKTNV-1" source="b4RO9b29_PlneMSo0PhZ-38" target="b4RO9b29_PlneMSo0PhZ-40" edge="1">
          <mxGeometry relative="1" as="geometry" />
        </mxCell>
        <mxCell id="b4RO9b29_PlneMSo0PhZ-38" value="i &amp;lt;= noguldījuma&lt;div&gt;&amp;nbsp;ilgumu&lt;/div&gt;" style="strokeWidth=2;html=1;shape=mxgraph.flowchart.decision;whiteSpace=wrap;" parent="WIyWlLk6GJQsqaUBKTNV-1" vertex="1">
          <mxGeometry x="1175.5" y="340" width="131" height="110" as="geometry" />
        </mxCell>
        <mxCell id="b4RO9b29_PlneMSo0PhZ-39" value="inicializē i uz 1" style="rounded=0;whiteSpace=wrap;html=1;" parent="WIyWlLk6GJQsqaUBKTNV-1" vertex="1">
          <mxGeometry x="1180" y="260" width="120" height="60" as="geometry" />
        </mxCell>
        <mxCell id="b4RO9b29_PlneMSo0PhZ-40" value="aprēķina ieguldījumu" style="rounded=0;whiteSpace=wrap;html=1;" parent="WIyWlLk6GJQsqaUBKTNV-1" vertex="1">
          <mxGeometry x="1390" y="420" width="120" height="60" as="geometry" />
        </mxCell>
        <mxCell id="b4RO9b29_PlneMSo0PhZ-47" style="edgeStyle=orthogonalEdgeStyle;rounded=0;orthogonalLoop=1;jettySize=auto;html=1;" parent="WIyWlLk6GJQsqaUBKTNV-1" source="b4RO9b29_PlneMSo0PhZ-41" target="b4RO9b29_PlneMSo0PhZ-42" edge="1">
          <mxGeometry relative="1" as="geometry" />
        </mxCell>
        <mxCell id="b4RO9b29_PlneMSo0PhZ-41" value="Izvada ieguldījumu pēc n/i gada" style="strokeWidth=2;html=1;shape=mxgraph.flowchart.document2;whiteSpace=wrap;size=0.25;" parent="WIyWlLk6GJQsqaUBKTNV-1" vertex="1">
          <mxGeometry x="1380" y="500" width="140" height="60" as="geometry" />
        </mxCell>
        <mxCell id="b4RO9b29_PlneMSo0PhZ-50" style="edgeStyle=orthogonalEdgeStyle;rounded=0;orthogonalLoop=1;jettySize=auto;html=1;" parent="WIyWlLk6GJQsqaUBKTNV-1" source="b4RO9b29_PlneMSo0PhZ-42" target="b4RO9b29_PlneMSo0PhZ-49" edge="1">
          <mxGeometry relative="1" as="geometry" />
        </mxCell>
        <mxCell id="b4RO9b29_PlneMSo0PhZ-42" value="atjaunina noguldījumu uz ieguldījuma rezultāta" style="rounded=0;whiteSpace=wrap;html=1;" parent="WIyWlLk6GJQsqaUBKTNV-1" vertex="1">
          <mxGeometry x="1390" y="580" width="120" height="60" as="geometry" />
        </mxCell>
        <mxCell id="b4RO9b29_PlneMSo0PhZ-43" value="Beigas" style="ellipse;whiteSpace=wrap;html=1;" parent="WIyWlLk6GJQsqaUBKTNV-1" vertex="1">
          <mxGeometry x="970" y="490" width="120" height="80" as="geometry" />
        </mxCell>
        <mxCell id="b4RO9b29_PlneMSo0PhZ-46" style="edgeStyle=orthogonalEdgeStyle;rounded=0;orthogonalLoop=1;jettySize=auto;html=1;entryX=0.5;entryY=0;entryDx=0;entryDy=0;entryPerimeter=0;" parent="WIyWlLk6GJQsqaUBKTNV-1" source="b4RO9b29_PlneMSo0PhZ-40" target="b4RO9b29_PlneMSo0PhZ-41" edge="1">
          <mxGeometry relative="1" as="geometry" />
        </mxCell>
        <mxCell id="b4RO9b29_PlneMSo0PhZ-49" value="i = i + 1" style="rounded=0;whiteSpace=wrap;html=1;" parent="WIyWlLk6GJQsqaUBKTNV-1" vertex="1">
          <mxGeometry x="1390" y="660" width="120" height="60" as="geometry" />
        </mxCell>
        <mxCell id="b4RO9b29_PlneMSo0PhZ-51" style="edgeStyle=orthogonalEdgeStyle;rounded=0;orthogonalLoop=1;jettySize=auto;html=1;entryX=0.5;entryY=1;entryDx=0;entryDy=0;entryPerimeter=0;" parent="WIyWlLk6GJQsqaUBKTNV-1" source="b4RO9b29_PlneMSo0PhZ-49" target="b4RO9b29_PlneMSo0PhZ-38" edge="1">
          <mxGeometry relative="1" as="geometry" />
        </mxCell>
        <mxCell id="b4RO9b29_PlneMSo0PhZ-58" value="" style="endArrow=classic;html=1;rounded=0;entryX=0.5;entryY=0;entryDx=0;entryDy=0;entryPerimeter=0;" parent="WIyWlLk6GJQsqaUBKTNV-1" target="b4RO9b29_PlneMSo0PhZ-38" edge="1">
          <mxGeometry width="50" height="50" relative="1" as="geometry">
            <mxPoint x="1240" y="320" as="sourcePoint" />
            <mxPoint x="1290" y="270" as="targetPoint" />
          </mxGeometry>
        </mxCell>
        <mxCell id="b4RO9b29_PlneMSo0PhZ-60" value="2&lt;span style=&quot;background-color: initial;&quot;&gt;&amp;nbsp;Uzdevuma blokshēma&lt;/span&gt;" style="text;strokeColor=none;fillColor=none;html=1;fontSize=20;fontStyle=1;verticalAlign=middle;align=center;" parent="WIyWlLk6GJQsqaUBKTNV-1" vertex="1">
          <mxGeometry x="1389" y="70" width="100" height="40" as="geometry" />
        </mxCell>
        <mxCell id="b4RO9b29_PlneMSo0PhZ-63" style="edgeStyle=orthogonalEdgeStyle;rounded=0;orthogonalLoop=1;jettySize=auto;html=1;" parent="WIyWlLk6GJQsqaUBKTNV-1" source="b4RO9b29_PlneMSo0PhZ-61" target="b4RO9b29_PlneMSo0PhZ-62" edge="1">
          <mxGeometry relative="1" as="geometry" />
        </mxCell>
        <mxCell id="b4RO9b29_PlneMSo0PhZ-61" value="Sākums" style="ellipse;whiteSpace=wrap;html=1;" parent="WIyWlLk6GJQsqaUBKTNV-1" vertex="1">
          <mxGeometry x="1920" y="60" width="120" height="80" as="geometry" />
        </mxCell>
        <mxCell id="b4RO9b29_PlneMSo0PhZ-65" style="edgeStyle=orthogonalEdgeStyle;rounded=0;orthogonalLoop=1;jettySize=auto;html=1;" parent="WIyWlLk6GJQsqaUBKTNV-1" source="b4RO9b29_PlneMSo0PhZ-62" target="b4RO9b29_PlneMSo0PhZ-64" edge="1">
          <mxGeometry relative="1" as="geometry" />
        </mxCell>
        <mxCell id="b4RO9b29_PlneMSo0PhZ-62" value="Izvada reizreiķina tabulas galveni" style="shape=document;whiteSpace=wrap;html=1;boundedLbl=1;" parent="WIyWlLk6GJQsqaUBKTNV-1" vertex="1">
          <mxGeometry x="1920" y="170" width="120" height="80" as="geometry" />
        </mxCell>
        <mxCell id="b4RO9b29_PlneMSo0PhZ-64" value="i = 0" style="rounded=0;whiteSpace=wrap;html=1;" parent="WIyWlLk6GJQsqaUBKTNV-1" vertex="1">
          <mxGeometry x="1920" y="270" width="120" height="60" as="geometry" />
        </mxCell>
        <mxCell id="b4RO9b29_PlneMSo0PhZ-67" value="Jā" style="edgeStyle=orthogonalEdgeStyle;rounded=0;orthogonalLoop=1;jettySize=auto;html=1;" parent="WIyWlLk6GJQsqaUBKTNV-1" source="b4RO9b29_PlneMSo0PhZ-66" edge="1">
          <mxGeometry relative="1" as="geometry">
            <mxPoint x="2130" y="510" as="targetPoint" />
          </mxGeometry>
        </mxCell>
        <mxCell id="b4RO9b29_PlneMSo0PhZ-73" style="edgeStyle=orthogonalEdgeStyle;rounded=0;orthogonalLoop=1;jettySize=auto;html=1;" parent="WIyWlLk6GJQsqaUBKTNV-1" source="b4RO9b29_PlneMSo0PhZ-66" edge="1">
          <mxGeometry relative="1" as="geometry">
            <mxPoint x="1840" y="540" as="targetPoint" />
          </mxGeometry>
        </mxCell>
        <mxCell id="b4RO9b29_PlneMSo0PhZ-66" value="i &amp;lt; 10" style="strokeWidth=2;html=1;shape=mxgraph.flowchart.decision;whiteSpace=wrap;" parent="WIyWlLk6GJQsqaUBKTNV-1" vertex="1">
          <mxGeometry x="1930" y="360" width="100" height="100" as="geometry" />
        </mxCell>
        <mxCell id="b4RO9b29_PlneMSo0PhZ-71" style="edgeStyle=orthogonalEdgeStyle;rounded=0;orthogonalLoop=1;jettySize=auto;html=1;" parent="WIyWlLk6GJQsqaUBKTNV-1" source="b4RO9b29_PlneMSo0PhZ-68" target="b4RO9b29_PlneMSo0PhZ-70" edge="1">
          <mxGeometry relative="1" as="geometry" />
        </mxCell>
        <mxCell id="b4RO9b29_PlneMSo0PhZ-68" value="Izvada reizreiķina tabulas rindu" style="shape=document;whiteSpace=wrap;html=1;boundedLbl=1;" parent="WIyWlLk6GJQsqaUBKTNV-1" vertex="1">
          <mxGeometry x="2080" y="510" width="120" height="80" as="geometry" />
        </mxCell>
        <mxCell id="b4RO9b29_PlneMSo0PhZ-70" value="i = i + 1" style="rounded=0;whiteSpace=wrap;html=1;" parent="WIyWlLk6GJQsqaUBKTNV-1" vertex="1">
          <mxGeometry x="2080" y="620" width="120" height="60" as="geometry" />
        </mxCell>
        <mxCell id="b4RO9b29_PlneMSo0PhZ-72" style="edgeStyle=orthogonalEdgeStyle;rounded=0;orthogonalLoop=1;jettySize=auto;html=1;entryX=0.5;entryY=1;entryDx=0;entryDy=0;entryPerimeter=0;" parent="WIyWlLk6GJQsqaUBKTNV-1" source="b4RO9b29_PlneMSo0PhZ-70" target="b4RO9b29_PlneMSo0PhZ-66" edge="1">
          <mxGeometry relative="1" as="geometry" />
        </mxCell>
        <mxCell id="b4RO9b29_PlneMSo0PhZ-74" value="Beigas" style="ellipse;whiteSpace=wrap;html=1;" parent="WIyWlLk6GJQsqaUBKTNV-1" vertex="1">
          <mxGeometry x="1780" y="540" width="120" height="80" as="geometry" />
        </mxCell>
        <mxCell id="b4RO9b29_PlneMSo0PhZ-75" style="edgeStyle=orthogonalEdgeStyle;rounded=0;orthogonalLoop=1;jettySize=auto;html=1;entryX=0.5;entryY=0;entryDx=0;entryDy=0;entryPerimeter=0;" parent="WIyWlLk6GJQsqaUBKTNV-1" source="b4RO9b29_PlneMSo0PhZ-64" target="b4RO9b29_PlneMSo0PhZ-66" edge="1">
          <mxGeometry relative="1" as="geometry" />
        </mxCell>
        <mxCell id="b4RO9b29_PlneMSo0PhZ-77" value="&lt;span style=&quot;background-color: initial;&quot;&gt;3 Uzdevuma blokshēma&lt;/span&gt;" style="text;strokeColor=none;fillColor=none;html=1;fontSize=20;fontStyle=1;verticalAlign=middle;align=center;" parent="WIyWlLk6GJQsqaUBKTNV-1" vertex="1">
          <mxGeometry x="2150" y="80" width="100" height="40" as="geometry" />
        </mxCell>
      </root>
    </mxGraphModel>
  </diagram>
</mxfile>
